# xmcd CD database generated by RipIT
#
# Track frame offsets:
# 182
# 12440
# 26035
# 38515
# 51912
# 65757
# 79675
# 93075
# 106487
# 121047
# 133565
# 147462
# 161900
# 174965
# 189100
# 202030
# 215282
# 229252
# 242025
# 256360
# 269672
# 283577
# 296897
#
# Disc length: 4133 seconds
#
# Revision: 3
# Processed by: cddbd v1.5.2PL0 Copyright (c) Steve Scherf et al.
# Submitted via: RipIT 3.7.0-beta20081019 www.suwald.com/ripit/ripit.html on 2009-01-02 at 08:58
#
DISCID=54102317
DTITLE=Charlie Patton - King Of The Delta Blues
DYEAR=2001
DGENRE=Blues
TTITLE0=Revenue Man Blues
TTITLE1=Some Summer Day
TTITLE2=Hang It On The Wall
TTITLE3=You Gonna Need Somebody When You Die
TTITLE4=Jim Lee Blues (Part 1)
TTITLE5=Pea Vine Blues
TTITLE6=Elder Greene Blues
TTITLE7=Love My Stuff
TTITLE8=Hammer Blues
TTITLE9=Rattlesnake Blues
TTITLE10=I'm Goin' Home
TTITLE11=Jersey Bull Blues
TTITLE12=Some These Days I'll Be Gone
TTITLE13=Lord I'm Discouraged
TTITLE14=Oh Death
TTITLE15=Running Wild Blues
TTITLE16=Prayer Of Death (Part 1)
TTITLE17=Prayer Of Death (Part 2)
TTITLE18=Some Happy Day
TTITLE19=Troubled 'Bout My Mother
TTITLE20=I Shall Not Be Moved
TTITLE21=Mean Black Cat Blues
TTITLE22=Jesus Is A Dying-Bed Maker
EXTD=
EXTT0=
EXTT1=
EXTT2=
EXTT3=
EXTT4=
EXTT5=
EXTT6=
EXTT7=
EXTT8=
EXTT9=
EXTT10=
EXTT11=
EXTT12=
EXTT13=
EXTT14=
EXTT15=
EXTT16=
EXTT17=
EXTT18=
EXTT19=
EXTT20=
EXTT21=
EXTT22=
PLAYORDER=
